<svg width="91" height="90" viewBox="0 0 91 90" fill="none" xmlns="http://www.w3.org/2000/svg">
<g id="Group 33">
<path id="Vector" d="M45.0996 90C69.9524 90 90.0996 69.8528 90.0996 45C90.0996 20.1472 69.9524 0 45.0996 0C20.2468 0 0.0996094 20.1472 0.0996094 45C0.0996094 69.8528 20.2468 90 45.0996 90Z" fill="black"/>
<g id="Group">
<g id="Group_2">
<path id="Vector_2" fill-rule="evenodd" clip-rule="evenodd" d="M26.4191 38.395C26.4191 38.7047 30.1347 42.2139 30.3411 42.4203C30.9604 43.0396 34.0567 46.1359 34.3664 46.4455L38.2884 42.5235V47.3744C38.2884 47.7873 38.598 47.8905 39.0109 48.3033L42.3136 51.5028V50.8836H46.5453C47.5774 50.8836 47.5774 51.606 47.5774 52.3285C47.5774 52.9478 47.2678 53.3606 46.5453 53.3606H42.3136C42.3136 52.8446 42.004 52.7414 41.3847 52.2253C40.7655 51.6061 38.598 49.4386 38.2884 49.129V56.7666H48.2999C49.332 56.7666 50.6737 55.9409 51.1898 55.3217C52.4283 53.6703 52.5315 51.2964 51.4994 49.5418C51.293 49.2322 51.1898 49.129 50.9833 48.9226C51.3962 48.3033 51.809 48.3033 52.1187 46.7551C52.4283 44.8973 52.0155 43.1427 50.4673 42.0074C49.9512 41.5946 48.9191 41.0785 47.9902 41.0785H42.3136V33.6474C41.0751 33.6474 41.4879 33.6473 39.7334 35.4019C39.1141 36.0212 38.598 36.6405 37.9788 37.2597L34.4696 40.8721C34.0567 40.6657 29.7219 36.2276 28.9994 35.5051C28.6898 35.1955 28.3801 34.8859 28.0705 34.5762C27.1416 33.6473 27.5545 33.7505 26.3159 33.7505V38.395H26.4191ZM42.3136 45.723V44.5877H46.9581C47.887 44.5877 47.9902 46.7551 46.6485 46.7551H43.6554C42.7265 46.7551 42.3136 46.5487 42.3136 45.723Z" fill="white"/>
<path id="Vector_3" fill-rule="evenodd" clip-rule="evenodd" d="M48.093 38.3946C48.093 38.7043 51.8086 42.2135 52.015 42.4199C52.6343 43.0392 55.7306 46.1355 56.0403 46.4451L59.9623 42.5231V48.5093C59.9623 48.819 59.8591 49.1286 60.1687 49.1286H63.8843V33.4405C62.749 33.4405 62.9554 33.2341 61.7169 34.6791C61.5104 34.8855 61.5104 34.9887 61.304 35.1951L58.7237 37.7754C58.4141 38.085 58.2077 38.3947 57.8981 38.7043C57.4852 39.1171 56.5563 40.1492 56.1435 40.4589L52.5311 36.8465C52.015 36.4336 51.2926 35.608 50.7765 35.0919C50.4669 34.7823 50.1572 34.4726 49.8476 34.163C48.9187 33.2341 49.3316 33.3373 48.093 33.3373V38.3946Z" fill="white"/>
</g>
<path id="Vector_4" fill-rule="evenodd" clip-rule="evenodd" d="M26.4187 49.2314H30.4439V44.1741C30.4439 43.8644 26.6251 40.1488 26.4187 40.0456V49.2314Z" fill="white"/>
</g>
</g>
</svg>
