<svg width="91" height="90" fill="none" xmlns="http://www.w3.org/2000/svg"><path d="M45.1 90c24.852 0 45-20.147 45-45S69.952 0 45.1 0C20.247 0 .1 20.147.1 45s20.147 45 45 45Z" fill="#000"/><g fill-rule="evenodd" clip-rule="evenodd" fill="#fff"><path d="M26.42 38.395c0 .31 3.715 3.819 3.921 4.025l4.025 4.026 3.922-3.922v4.85c0 .413.31.517.723.93l3.303 3.199v-.62h4.231c1.032 0 1.032.723 1.032 1.445 0 .62-.31 1.033-1.032 1.033h-4.231c0-.516-.31-.62-.93-1.136l-3.096-3.096v7.638H48.3c1.032 0 2.374-.826 2.89-1.445 1.238-1.652 1.342-4.026.31-5.78a3.269 3.269 0 0 0-.517-.62c.413-.619.826-.619 1.136-2.167.31-1.858-.103-3.612-1.652-4.748-.516-.412-1.548-.928-2.477-.928h-5.676v-7.432c-1.239 0-.826 0-2.58 1.755-.62.62-1.136 1.239-1.755 1.858l-3.51 3.612c-.412-.206-4.747-4.644-5.47-5.367l-.928-.929c-.93-.929-.517-.825-1.755-.825v4.644h.103Zm15.894 7.328v-1.135h4.644c.929 0 1.032 2.167-.31 2.167h-2.993c-.928 0-1.341-.206-1.341-1.032Zm5.779-7.328c0 .31 3.716 3.819 3.922 4.025l4.025 4.025 3.922-3.922v5.986c0 .31-.103.62.207.62h3.715V33.44c-1.135 0-.929-.207-2.167 1.238-.207.206-.207.31-.413.516l-2.58 2.58c-.31.31-.516.62-.826.93-.413.412-1.342 1.444-1.755 1.754l-3.612-3.613c-.516-.412-1.238-1.238-1.755-1.754l-.928-.929c-.93-.929-.516-.826-1.755-.826v5.058Z"/><path d="M26.419 49.231h4.025v-5.057c0-.31-3.819-4.025-4.025-4.128v9.185Z"/></g></svg>